<svg width="52" height="50" viewBox="0 0 52 50" fill="none" xmlns="http://www.w3.org/2000/svg">
<path d="M5.77778 50C4.18889 50 2.82919 49.4565 1.69867 48.3694C0.568148 47.2824 0.00192593 45.9741 0 44.4444V5.55555C0 4.02778 0.566222 2.72037 1.69867 1.63333C2.83111 0.546296 4.19081 0.00185185 5.77778 0H46.2222C47.8111 0 49.1718 0.544445 50.3042 1.63333C51.4367 2.72222 52.0019 4.02963 52 5.55555V44.4444C52 45.9722 51.4347 47.2806 50.3042 48.3694C49.1737 49.4583 47.813 50.0018 46.2222 50H5.77778ZM5.77778 44.4444H46.2222V5.55555H5.77778V44.4444ZM8.66667 38.8889H43.3333L32.5 25L23.8333 36.1111L17.3333 27.7778L8.66667 38.8889Z" fill="#94A1B2"/>
</svg>
